<svg xmlns="http://www.w3.org/2000/svg" viewBox="0 0 404.91 563.53"><defs><style>.cls-1{isolation:isolate;}.cls-2{fill:#e9cfab;}.cls-3{fill:#4c2c00;}.cls-4{fill:#955e25;}.cls-5{fill:#704615;}.cls-6{fill:#c8b18a;}.cls-12,.cls-6,.cls-8{mix-blend-mode:multiply;}.cls-7{fill:#d35930;}.cls-16,.cls-8,.cls-9{fill:none;}.cls-8{stroke:#c8b18a;stroke-width:3px;}.cls-8,.cls-9{stroke-miterlimit:10;}.cls-9{stroke:#323534;stroke-width:2px;}.cls-10{fill:#231f20;}.cls-11{fill:#fff;}.cls-12{fill:#9fddf9;}.cls-13{fill:#fecb7c;}.cls-14{fill:#a58551;}.cls-15{fill:#c7a062;}</style></defs><title>gotchacon</title><g class="cls-1"><g id="Layer_1" data-name="Layer 1"><path class="cls-2" d="M387.66,539.45c0,14.63-11.19,26.48-25,26.48H37.77c-13.8,0-25-11.84-25-26.48V152.13c0-14.63,11.19-26.5,25-26.5h324.9c13.8,0,25,11.86,25,26.5V539.45Z" transform="translate(-2.42 -2.4)"/><path class="cls-3" d="M377,538.17c-0.26.18-.49,0.38-0.76,0.55l0,0a23.87,23.87,0,0,1-13.64,4.3H212c-28.43,0-107.68.07-159.84,0H37.7c-13.81,0-25-11.84-25-26.48v22.85c0,14.63,11.19,26.48,25,26.48H52.12c52.16,0.07,131.41,0,159.84,0H362.6a23.87,23.87,0,0,0,13.64-4.3l0,0c0.27-.17.5-0.37,0.76-0.55a22.43,22.43,0,0,0,7.06-8.13,27.51,27.51,0,0,0,3.5-13.47V516.58a27.51,27.51,0,0,1-3.5,13.47A22.43,22.43,0,0,1,377,538.17Z" transform="translate(-2.42 -2.4)"/><path class="cls-3" d="M233.17,357.33A25.17,25.17,0,0,1,208.11,381H190.39a25,25,0,0,1-24.87-24.86l-0.06,11.79a25,25,0,0,0,25,25h17.72a25,25,0,0,0,25-25V357.33Z" transform="translate(-2.42 -2.4)"/><path class="cls-3" d="M307.93,478.53C253.4,478.53,245,421,199.32,421s-53.85,57.49-108.38,57.49c-3.42,0-52,2-65-43.59,0,0,5.58,50.12,48.72,59.65,14.31,3.16,29.58,0,39.89-4.63,39.6-17.86,55.71-51.48,85.63-51.48S244.68,472.1,284.28,490c10.31,4.65,25.57,7.79,39.89,4.63,43.14-9.53,48.61-59.65,48.61-59.65C358.93,480.83,311.34,478.53,307.93,478.53Z" transform="translate(-2.42 -2.4)"/><path class="cls-4" d="M199.32,371.32h0C110.21,310,98.28,485.46,24.78,427c-1.36,103,145.07,41.35,174.53-4,29.48,45.31,175.88,107,174.53,4C300.35,485.46,288.43,310,199.32,371.32Z" transform="translate(-2.42 -2.4)"/><path class="cls-5" d="M199.32,395.9h0c-89.09-51.25-101,95.34-174.51,46.54-1.36,86,145.07,18.47,174.53-19.37,29.48,37.85,175.88,105.41,174.53,19.37C300.35,491.25,288.43,344.66,199.32,395.9Z" transform="translate(-2.42 -2.4)"/><path class="cls-6" d="M208.26,381.15a25,25,0,0,0,25-25v-0.34L232.54,350a25.19,25.19,0,0,1-24.35,19.19H190.48a25.1,25.1,0,0,1-24.12-19l-0.75,6.07a24.8,24.8,0,0,0,24.93,24.83h17.72Z" transform="translate(-2.42 -2.4)"/><path class="cls-7" d="M233.17,352.42a25,25,0,0,1-25,25H190.45a25,25,0,0,1-25-25l11.8-95.87c0-13.8,6.22-26,20-26h5.42c13.81,0,19.15,15.62,19.15,29.42Z" transform="translate(-2.42 -2.4)"/><path class="cls-8" d="M241.12,474c0,8.1-18.31,14.66-40.91,14.66s-40.91-6.56-40.91-14.66" transform="translate(-2.42 -2.4)"/><path class="cls-9" d="M241.12,469.54c0,8.1-18.31,14.66-40.91,14.66s-40.91-6.56-40.91-14.66" transform="translate(-2.42 -2.4)"/><path class="cls-10" d="M99,271.47c0,11.46-5.62,15.11-12.54,15.11h0c-6.92,0-12.54-3.65-12.54-15.11v-26.1c0-11.45,5.61-14.59,12.54-14.59h0c6.92,0,12.54,3.14,12.54,14.59v26.1Z" transform="translate(-2.42 -2.4)"/><path class="cls-11" d="M86,251.09c0,4-2,5.25-4.36,5.25h0c-2.41,0-4.36-1.27-4.36-5.25V242c0-4,2-5.07,4.36-5.07h0c2.4,0,4.36,1.09,4.36,5.07v9.07Z" transform="translate(-2.42 -2.4)"/><path class="cls-11" d="M83.41,266c0,1.6-.79,2.11-1.75,2.11h0c-1,0-1.75-.51-1.75-2.11v-3.64c0-1.6.79-2,1.75-2h0c1,0,1.75.44,1.75,2V266Z" transform="translate(-2.42 -2.4)"/><path class="cls-10" d="M314.75,271.47c0,11.46-5.62,15.11-12.54,15.11h0c-6.92,0-12.54-3.65-12.54-15.11v-26.1c0-11.45,5.61-14.59,12.54-14.59h0c6.92,0,12.54,3.14,12.54,14.59v26.1Z" transform="translate(-2.42 -2.4)"/><path class="cls-11" d="M301.77,251.09c0,4-2,5.25-4.36,5.25h0c-2.41,0-4.36-1.27-4.36-5.25V242c0-4,2-5.07,4.36-5.07h0c2.4,0,4.36,1.09,4.36,5.07v9.07Z" transform="translate(-2.42 -2.4)"/><path class="cls-11" d="M299.16,266c0,1.6-.79,2.11-1.75,2.11h0c-1,0-1.75-.51-1.75-2.11v-3.64c0-1.6.79-2,1.75-2h0c1,0,1.75.44,1.75,2V266Z" transform="translate(-2.42 -2.4)"/><path class="cls-12" d="M301.82,203.65c-30.9,0-56,24.58-56,54.9s25.06,54.9,56,54.9,56-24.58,56-54.9S332.73,203.65,301.82,203.65Z" transform="translate(-2.42 -2.4)"/><path class="cls-13" d="M364.68,260c0-.48,0-1,0-1.44a62.12,62.12,0,0,0-62.05-62.05c-1.85,0-3.68.1-5.49,0.26C332,198.3,361.42,225,364.68,260Z" transform="translate(-2.42 -2.4)"/><path class="cls-14" d="M249.69,226.29a61.89,61.89,0,0,0,11.7,78.56C244.26,282.78,237.82,250.51,249.69,226.29Z" transform="translate(-2.42 -2.4)"/><path class="cls-15" d="M364.67,260.09s0-.06,0-0.09c-3.26-35-32.67-61.69-67.5-63.24a62.13,62.13,0,0,0-47.48,29.53c-11.87,24.22-5.43,56.5,11.7,78.56a61.84,61.84,0,0,0,36.28,15.55l1.22,0.08c15.87,0,31.42-5.74,44.44-16.59C355.28,291.94,360.95,276.86,364.67,260.09Zm-116.91-1.53a54.9,54.9,0,1,1,54.9,54.9A55,55,0,0,1,247.76,258.55Z" transform="translate(-2.42 -2.4)"/><path class="cls-13" d="M359.11,284.25a61.69,61.69,0,0,0,5.56-24.16c-3.72,16.77-9.39,31.85-21.34,43.79-13,10.85-28.57,16.62-44.44,16.59,1.25,0.08,2.5.14,3.77,0.14A62.1,62.1,0,0,0,359.11,284.25Z" transform="translate(-2.42 -2.4)"/><path class="cls-14" d="M360.64,257.94c0.65-1.62,1.82-3.5,3.74-4.13a6.29,6.29,0,0,0-1.87,11.74A7.56,7.56,0,0,1,360.64,257.94Z" transform="translate(-2.42 -2.4)"/><path class="cls-13" d="M384.52,255.85a10.92,10.92,0,0,0-10.08-6.76,10.78,10.78,0,0,0-3.75.67C376.12,249,381.57,250.84,384.52,255.85Z" transform="translate(-2.42 -2.4)"/><path class="cls-14" d="M383.18,262.56a9.12,9.12,0,0,1-8.74,6.55,8.94,8.94,0,0,1-5.54-1.93,7.68,7.68,0,0,0,4.41,2.64C377.48,270.2,382.73,267.32,383.18,262.56Z" transform="translate(-2.42 -2.4)"/><path class="cls-14" d="M374.44,250.88a9.1,9.1,0,0,1,1,.06c-3.27-.63-6.6-0.39-8.47,3h0.68A9,9,0,0,1,374.44,250.88Z" transform="translate(-2.42 -2.4)"/><path class="cls-15" d="M384.28,264.68a10.88,10.88,0,0,0,.24-8.83c-2.95-5-8.4-6.88-13.83-6.09a11,11,0,0,0-5,3.82h0l-0.09.12h-0.07a6.34,6.34,0,0,0-1.09.1c-1.92.63-3.1,2.52-3.74,4.13a7.56,7.56,0,0,0,1.87,7.61,6.26,6.26,0,0,0,3,.74h0.07a10.93,10.93,0,0,0,6.35,4.31C376.86,270.84,381.79,269,384.28,264.68Zm-11,5.13a7.68,7.68,0,0,1-4.41-2.64,9.65,9.65,0,0,1-1.07-1l-0.06,0,0.06,0-0.27-.3a6.38,6.38,0,0,0,1.39-.69,7.93,7.93,0,0,0,.17-10.31,6.33,6.33,0,0,0-1.56-.82l0.1-.11H367c1.87-3.43,5.21-3.67,8.47-3a9.07,9.07,0,0,1,2.29.56l0.33,0.1a6.65,6.65,0,0,1,3.42,2.62,9.09,9.09,0,0,1,1.7,8.34C382.73,267.32,377.48,270.2,373.32,269.82Z" transform="translate(-2.42 -2.4)"/><path class="cls-15" d="M381.49,254.22a6.65,6.65,0,0,0-3.42-2.62l-0.33-.1A9.17,9.17,0,0,1,381.49,254.22Z" transform="translate(-2.42 -2.4)"/><path class="cls-13" d="M374.44,270.9a10.92,10.92,0,0,0,9.84-6.21c-2.49,4.32-7.42,6.15-12.38,5.91A10.83,10.83,0,0,0,374.44,270.9Z" transform="translate(-2.42 -2.4)"/><path class="cls-13" d="M371.77,260a6.23,6.23,0,0,0-2.64-5.09,7.93,7.93,0,0,1-.17,10.31A6.24,6.24,0,0,0,371.77,260Z" transform="translate(-2.42 -2.4)"/><path class="cls-15" d="M377.69,338.26a5.89,5.89,0,0,0-.37-0.81c0.08,0.32.16,0.63,0.24,1Z" transform="translate(-2.42 -2.4)"/><path class="cls-14" d="M375.9,338.59a6.73,6.73,0,0,1,.28.78,5.55,5.55,0,0,0,1.37-1c-0.07-.32-0.15-0.64-0.24-1l-0.17-.28A3.46,3.46,0,0,1,375.9,338.59Z" transform="translate(-2.42 -2.4)"/><path class="cls-13" d="M376.88,350.44a1.69,1.69,0,0,1-1.93,1,1.6,1.6,0,0,1-1.16-1,0,0,0,0,0,0,0,2.1,2.1,0,0,0,1.77,1.25c2.39,0,3-4.91,3-7.81a17.65,17.65,0,0,0-.85-5.69l-0.14.14C378.5,342.42,378.78,346.64,376.88,350.44Z" transform="translate(-2.42 -2.4)"/><path class="cls-15" d="M373.32,348.38h0a0.3,0.3,0,0,1,0,.1l0.1-.06A0.26,0.26,0,0,0,373.32,348.38Z" transform="translate(-2.42 -2.4)"/><path class="cls-14" d="M377.19,340.49a4,4,0,0,1-.7.17,17.24,17.24,0,0,1,.23,2c0,0.4,0,.83,0,1.29a14.07,14.07,0,0,1-.94,5.68C377.84,347.14,377.07,343.49,377.19,340.49Z" transform="translate(-2.42 -2.4)"/><path class="cls-13" d="M375.27,349.58l0-.08a7.36,7.36,0,0,1-.55-1.64,17.63,17.63,0,0,1-.39-3.91,17,17,0,0,1,.47-4.24q-0.15.46-.27,0.92,0.12-.47.27-0.92c0.06-.23.12-0.43,0.18-0.62a6.85,6.85,0,0,0-.85,2.95C374.16,344.53,373.6,347.46,375.27,349.58Z" transform="translate(-2.42 -2.4)"/><path class="cls-15" d="M373.6,350.23l0.14,0.27a0,0,0,0,1,0,0,1.6,1.6,0,0,0,1.16,1,1.69,1.69,0,0,0,1.93-1c1.9-3.8,1.62-8,.68-12a5.55,5.55,0,0,1-1.37,1,11.49,11.49,0,0,1,.3,1.3,4,4,0,0,0,.7-0.17v0l0.07-.05-0.07.05c-0.11,3,.65,6.65-1.37,9.14a1.19,1.19,0,0,1-.22.35,1,1,0,0,1-.32-0.41c-1.68-2.12-1.11-5-1.18-7.53a6.85,6.85,0,0,1,.85-2.95,3.71,3.71,0,0,1,.5-1l0.08-.08a2.06,2.06,0,0,1,.38.62,3.46,3.46,0,0,0,1.25-1.43,2,2,0,0,0-1.63-1,1.68,1.68,0,0,0-1.09.4l-0.1.17,0.1-.17a3.52,3.52,0,0,0-.89,1.23A22.84,22.84,0,0,0,373.6,350.23Z" transform="translate(-2.42 -2.4)"/><path class="cls-13" d="M373,348.64a8.27,8.27,0,0,0,.57,1.59,22.84,22.84,0,0,1-.06-12.46,16.34,16.34,0,0,0-1,6.17A20,20,0,0,0,373,348.64Z" transform="translate(-2.42 -2.4)"/><path class="cls-13" d="M375.52,340.83c2.89,0,5.15-3.43,5.15-7.81a10.14,10.14,0,0,0-1.51-5.57,14.16,14.16,0,0,1,1,7.54c-0.45,2.7-2.45,5.79-5.47,5.15h0c0,0.19-.1.36-0.12,0.55A3.58,3.58,0,0,0,375.52,340.83Z" transform="translate(-2.42 -2.4)"/><path class="cls-14" d="M378.89,333c0,3.26-1.54,6-3.37,6A1.91,1.91,0,0,1,375,339c-0.07.15-.16,0.31-0.21,0.47h0a4,4,0,0,0,3.47-2,9.69,9.69,0,0,0-.19-9,3.57,3.57,0,0,0-2-1.61,0.72,0.72,0,0,0-.57.18C377.35,327,378.89,329.77,378.89,333Z" transform="translate(-2.42 -2.4)"/><path class="cls-13" d="M370.37,333a9.54,9.54,0,0,0,2.05,6.28l0.14-.57c-1.54-1.48-1.67-3.86-1.87-5.92a9.76,9.76,0,0,1,.26-3.47A11.32,11.32,0,0,0,370.37,333Z" transform="translate(-2.42 -2.4)"/><path class="cls-14" d="M372.91,339.79c0.23-.64.37-1.32,0.6-2l-0.22-.33a5.06,5.06,0,0,0-.72,1.26l-0.14.57A5.46,5.46,0,0,0,372.91,339.79Z" transform="translate(-2.42 -2.4)"/><path class="cls-13" d="M373.53,327.72h0c-1.57,1.7-1.72,4-1.34,6.13,0-.27,0-0.55,0-0.84a8,8,0,0,1,1.58-5.07A1.58,1.58,0,0,0,373.53,327.72Z" transform="translate(-2.42 -2.4)"/><path class="cls-15" d="M370.7,332.81c0.19,2.06.32,4.44,1.87,5.92a5.06,5.06,0,0,1,.72-1.26,8.27,8.27,0,0,1-1.09-3.62c-0.38-2.18-.23-4.43,1.34-6.13h0l-0.06-.06,0.06,0.06c0-.06,0-0.06.06-0.06s-0.06,0-.06.06a1.58,1.58,0,0,1,.2.23,2.42,2.42,0,0,1,1.79-1h0a0.72,0.72,0,0,1,.57-0.18,3.57,3.57,0,0,1,2,1.61,9.69,9.69,0,0,1,.19,9,4,4,0,0,1-3.47,2v0h0c0.05-.16.14-0.31,0.21-0.47a3,3,0,0,1-1.52-1.17c-0.23.66-.37,1.34-0.6,2a4.21,4.21,0,0,0,1.66.92c0-.19.1-0.36,0.12-0.55h0s0,0,0-.07,0,0,0,.07h0c3,0.64,5-2.45,5.47-5.15a14.16,14.16,0,0,0-1-7.54,4.46,4.46,0,0,0-3.64-2.24c-2,0-3.71,1.65-4.56,4.13A9.76,9.76,0,0,0,370.7,332.81Z" transform="translate(-2.42 -2.4)"/><path class="cls-15" d="M377.56,315.76a6,6,0,0,0-.37-0.81q0.12,0.48.24,1Z" transform="translate(-2.42 -2.4)"/><path class="cls-14" d="M375.76,316.1a6.41,6.41,0,0,1,.28.78,5.54,5.54,0,0,0,1.37-1q-0.11-.48-0.24-1l-0.17-.28A3.47,3.47,0,0,1,375.76,316.1Z" transform="translate(-2.42 -2.4)"/><path class="cls-14" d="M375.32,328.08a9.06,9.06,0,0,0,1.26-7.91c0,0.4,0,.83,0,1.28,0,3.82-.92,5.83-1.16,6a1.18,1.18,0,0,1-.37-0.49,3.85,3.85,0,0,0-.65.33C374.57,327.72,375.14,328.32,375.32,328.08Z" transform="translate(-2.42 -2.4)"/><path class="cls-13" d="M376.74,328a1.69,1.69,0,0,1-1.93,1,1.6,1.6,0,0,1-1.16-1s0,0,0,0a2.1,2.1,0,0,0,1.77,1.25c2.39,0,3-4.91,3-7.81a17.65,17.65,0,0,0-.85-5.69l-0.14.14C378.36,319.93,378.64,324.15,376.74,328Z" transform="translate(-2.42 -2.4)"/><path class="cls-13" d="M374.15,325.57h0a0.75,0.75,0,0,1,.38-0.21,17.65,17.65,0,0,1-.39-3.91,16.93,16.93,0,0,1,.47-4.24A17.6,17.6,0,0,0,374.15,325.57Z" transform="translate(-2.42 -2.4)"/><path class="cls-15" d="M373.18,325.89h0a0.28,0.28,0,0,1,0,.1l0.1-.06v0Z" transform="translate(-2.42 -2.4)"/><path class="cls-15" d="M375.32,328.08c-0.18.24-.75-0.36-0.88-0.75l-0.09,0,0.09,0a0.61,0.61,0,0,1,0-.08,0.61,0.61,0,0,0,0,.08,3.85,3.85,0,0,1,.65-0.33,7.35,7.35,0,0,1-.55-1.63,0.75,0.75,0,0,0-.38.21h0v0h0l0-.1a5.14,5.14,0,0,0-1,.46v0l-0.1.06a0.55,0.55,0,0,1-.19.16,7.56,7.56,0,0,0,.71,1.86s0,0,0,0a1.6,1.6,0,0,0,1.16,1,1.69,1.69,0,0,0,1.93-1c1.9-3.8,1.62-8,.68-12a5.54,5.54,0,0,1-1.37,1,14.52,14.52,0,0,1,.53,3.3A9.06,9.06,0,0,1,375.32,328.08Z" transform="translate(-2.42 -2.4)"/><path class="cls-14" d="M373.18,325.89s0,0,0-.06,0,0.06,0,.06v0a5.14,5.14,0,0,1,1-.46c0-.2-0.06-0.4-0.09-0.6a10.15,10.15,0,0,0-.95.49Z" transform="translate(-2.42 -2.4)"/><path class="cls-15" d="M374,324.88a17.26,17.26,0,0,1,.57-7.65,4.87,4.87,0,0,1,.69-1.66l0.08-.16-0.08.16,0.08-.08a2,2,0,0,1,.38.62,3.47,3.47,0,0,0,1.25-1.43,2,2,0,0,0-1.63-1,1.68,1.68,0,0,0-1.09.4c-2,3.33-1.75,7.52-1.2,11.31A10.15,10.15,0,0,1,374,324.88Z" transform="translate(-2.42 -2.4)"/><path class="cls-13" d="M372.9,326.15a0.42,0.42,0,0,0,.24-0.26h0c-0.6-3.93-1-8.35,1.12-11.84-1.5,1.23-1.94,5-1.94,7.4A20,20,0,0,0,372.9,326.15Z" transform="translate(-2.42 -2.4)"/><path class="cls-13" d="M375.38,318.34c2.89,0,5.15-3.43,5.15-7.81A10.15,10.15,0,0,0,379,305a14.16,14.16,0,0,1,1,7.55c-0.45,2.7-2.44,5.79-5.47,5.15h0c0,0.2-.1.36-0.12,0.55A3.62,3.62,0,0,0,375.38,318.34Z" transform="translate(-2.42 -2.4)"/><path class="cls-14" d="M378.75,310.53c0,3.26-1.54,6-3.37,6a1.84,1.84,0,0,1-.49-0.07c-0.07.16-.16,0.31-0.21,0.47h0a4,4,0,0,0,3.48-2,9.7,9.7,0,0,0-.19-9,3.57,3.57,0,0,0-2-1.61,0.71,0.71,0,0,0-.57.18C377.21,304.53,378.75,307.28,378.75,310.53Z" transform="translate(-2.42 -2.4)"/><path class="cls-13" d="M370.23,310.53a9.54,9.54,0,0,0,2.05,6.28l0.14-.57c-1.54-1.48-1.67-3.86-1.87-5.92a9.81,9.81,0,0,1,.26-3.47A11.32,11.32,0,0,0,370.23,310.53Z" transform="translate(-2.42 -2.4)"/><path class="cls-14" d="M372.77,317.29c0.23-.64.37-1.32,0.6-2l-0.22-.33a5.22,5.22,0,0,0-.72,1.26l-0.14.57A5.5,5.5,0,0,0,372.77,317.29Z" transform="translate(-2.42 -2.4)"/><path class="cls-13" d="M373.39,305.23h0c-1.57,1.7-1.72,4-1.34,6.13,0-.27,0-0.56,0-0.84a8,8,0,0,1,1.58-5.06A1.47,1.47,0,0,0,373.39,305.23Z" transform="translate(-2.42 -2.4)"/><path class="cls-15" d="M370.56,310.32c0.19,2.06.32,4.44,1.87,5.92a5.22,5.22,0,0,1,.72-1.26,8.25,8.25,0,0,1-1.09-3.61c-0.38-2.18-.23-4.43,1.34-6.13h0l-0.06-.06,0.06,0.06c0-.06,0-0.06.06-0.06s-0.06,0-.06.06a1.47,1.47,0,0,1,.2.24,2.41,2.41,0,0,1,1.79-1h0a0.71,0.71,0,0,1,.57-0.18,3.57,3.57,0,0,1,2,1.61,9.7,9.7,0,0,1,.19,9,4,4,0,0,1-3.48,2v0h0c0.05-.16.15-0.31,0.21-0.47a3,3,0,0,1-1.52-1.17c-0.23.66-.37,1.34-0.6,2a4.2,4.2,0,0,0,1.65.92c0-.19.1-0.36,0.12-0.55h0s0,0,0-.07,0,0,0,.07h0c3,0.64,5-2.45,5.47-5.15a14.16,14.16,0,0,0-1-7.55,4.46,4.46,0,0,0-3.65-2.24c-2,0-3.71,1.65-4.56,4.13A9.81,9.81,0,0,0,370.56,310.32Z" transform="translate(-2.42 -2.4)"/><path class="cls-13" d="M374.15,299c0-3.45.75-5.43,1.18-5.92a1.92,1.92,0,0,0-1,1c-1,2.76-.54,5.82.2,8.59A18,18,0,0,1,374.15,299Z" transform="translate(-2.42 -2.4)"/><path class="cls-15" d="M373.2,303a2.66,2.66,0,0,1,1.24-.58c-0.71-2.73-1.13-5.72-.15-8.42a1.92,1.92,0,0,1,1-1l0.05-.05a3.83,3.83,0,0,1,.71,1.55,1.52,1.52,0,0,1,.51-0.17h0v0c0.05,0,.06,0,0.06-0.06s0,0.06-.06.06c0.47,3.2.82,7-.8,9.93a2.19,2.19,0,0,1-.36.69l-0.05,0,0,0,0,0a4.67,4.67,0,0,1-.88-2.15c-0.41.16-.82,0.31-1.23,0.49v0h0l0,0.05,0-.05c-0.15.07-.23,0.25-0.41,0.34a7.49,7.49,0,0,0,.73,1.89,0.32,0.32,0,0,1,.21-0.18l0.16-.05h0c0.32,0.71,1.22,1.35,1.61,1,3.41-2.9,2.64-8.24,1.67-12.23l0.4-.31c-0.46-1.47-1.2-2.58-2.34-2.58-1.34,0-2.13,1.56-2.57,3.44C372.55,297.42,372.24,300.3,373.2,303Z" transform="translate(-2.42 -2.4)"/><path class="cls-14" d="M374.49,302.64l0-.18a2.66,2.66,0,0,0-1.24.58l0.09,0.25c0.41-.18.82-0.33,1.23-0.49Z" transform="translate(-2.42 -2.4)"/><path class="cls-13" d="M372.9,303.66c0.18-.09.25-0.28,0.41-0.34-1.09-2.83-.77-5.81-0.49-8.73a20.52,20.52,0,0,0-.46,4.37A20,20,0,0,0,372.9,303.66Z" transform="translate(-2.42 -2.4)"/><path class="cls-14" d="M375.82,304.3c1.62-2.89,1.27-6.73.8-9.93h0a1.52,1.52,0,0,0-.51.17,16.59,16.59,0,0,1,.52,4.42A15.33,15.33,0,0,1,375.82,304.3Z" transform="translate(-2.42 -2.4)"/><path class="cls-15" d="M374,305.32l-0.16.05C373.89,305.42,373.94,305.35,374,305.32Z" transform="translate(-2.42 -2.4)"/><path class="cls-13" d="M375.64,306.27c-0.39.39-1.29-.26-1.61-1h0c-0.05,0-.1.1-0.16,0.05a0.32,0.32,0,0,0-.21.18,2.08,2.08,0,0,0,1.75,1.21c2.39,0,3-4.91,3-7.81a18.81,18.81,0,0,0-.69-5.23l-0.4.31C378.28,298,379.05,303.37,375.64,306.27Z" transform="translate(-2.42 -2.4)"/><path class="cls-13" d="M380.14,287.83c-0.33,3-2.15,6.31-5.46,6.67a3.58,3.58,0,0,0,.7.07c2.89,0,5.15-3.43,5.15-7.81,0-3.08-1.12-5.69-2.8-7A11.86,11.86,0,0,1,380.14,287.83Z" transform="translate(-2.42 -2.4)"/><path class="cls-13" d="M372.2,292.95a13.69,13.69,0,0,1-.36-11.88,10,10,0,0,0-1.6,5.71A9.63,9.63,0,0,0,372.2,292.95Z" transform="translate(-2.42 -2.4)"/><path class="cls-13" d="M372.77,290.5a9.22,9.22,0,0,1-.75-3.73,7.91,7.91,0,0,1,1.62-5.12,5.67,5.67,0,0,1-.35-0.5A9.22,9.22,0,0,0,372.77,290.5Z" transform="translate(-2.42 -2.4)"/><path class="cls-14" d="M376.63,292.85a7.76,7.76,0,0,0,1-10.49,8.69,8.69,0,0,1,1.1,4.41c0,3.26-1.54,6-3.37,6h-0.16a0.6,0.6,0,0,0-.09.37A1.65,1.65,0,0,0,376.63,292.85Z" transform="translate(-2.42 -2.4)"/><path class="cls-14" d="M373.42,291.62a5.72,5.72,0,0,1-.66-1.12l-0.15-.32a5.93,5.93,0,0,0,1,2.13,0.75,0.75,0,0,1,.23-0.23l-0.21-.22Z" transform="translate(-2.42 -2.4)"/><path class="cls-15" d="M373.6,292.3l0,0Z" transform="translate(-2.42 -2.4)"/><path class="cls-15" d="M372.2,292.95a4.44,4.44,0,0,0,2.49,1.56c3.3-.36,5.12-3.68,5.46-6.67a11.86,11.86,0,0,0-2.4-8,3.85,3.85,0,0,0-2.35-.84,4.4,4.4,0,0,0-3.55,2.1A13.69,13.69,0,0,0,372.2,292.95Zm1.09-11.79a5.67,5.67,0,0,0,.35.5,2.39,2.39,0,0,1,1.74-.9,2.84,2.84,0,0,1,2.26,1.61,7.76,7.76,0,0,1-1,10.49,1.65,1.65,0,0,1-1.5.31,0.6,0.6,0,0,1,.09-0.37,2.35,2.35,0,0,1-1.4-.7,0.75,0.75,0,0,0-.23.23l0,0,0,0a5.93,5.93,0,0,1-1-2.13A9.19,9.19,0,0,1,373.29,281.15Z" transform="translate(-2.42 -2.4)"/><path class="cls-14" d="M375.63,281.49c-0.16-.16.27-0.46,0.06-0.63a1.29,1.29,0,0,1-.23.37c-0.39-.2-1.31-2.21-1.31-6a18.09,18.09,0,0,1,.35-3.7,0.17,0.17,0,0,1-.2,0C373.46,274.64,373.46,279.32,375.63,281.49Z" transform="translate(-2.42 -2.4)"/><path class="cls-14" d="M376.25,279.05a3.06,3.06,0,0,1,.72.26,11.45,11.45,0,0,0-1.06-9.12,15,15,0,0,1,.71,5A18.46,18.46,0,0,1,376.25,279.05Z" transform="translate(-2.42 -2.4)"/><path class="cls-15" d="M375.25,269.38l0.05-.07h0l0.08-.09a2.77,2.77,0,0,1,.52,1,11.45,11.45,0,0,1,1.06,9.12,3.06,3.06,0,0,0-.72-0.26,8.77,8.77,0,0,1-.56,1.8c0.21,0.17-.21.48-0.06,0.63-2.17-2.17-2.17-6.85-1.34-10a0.17,0.17,0,0,0,.2,0,7.8,7.8,0,0,1,.59-1.84,6.79,6.79,0,0,1-1.86-.19,11,11,0,0,0-.51,1.83H373c-0.65,2.2-.19,4.5-0.11,6.75,0.18,1.65.25,3.42,1.75,4.48a2.61,2.61,0,0,0,2.53-.87,0.31,0.31,0,0,0,0,.11,7.49,7.49,0,0,0,.71-1.82,1.12,1.12,0,0,0-.39-0.29c1.08-2.63.44-5.41,0.61-8.2-0.4-2.15-1.2-4.06-2.7-4.06a2.38,2.38,0,0,0-2,1.72A13.79,13.79,0,0,0,375.25,269.38Z" transform="translate(-2.42 -2.4)"/><path class="cls-14" d="M375.09,269.66a2.47,2.47,0,0,1,.16-0.28,13.79,13.79,0,0,1-1.88-.27c-0.05.12-.1,0.24-0.15,0.36A6.79,6.79,0,0,0,375.09,269.66Z" transform="translate(-2.42 -2.4)"/><path class="cls-13" d="M372.83,279.6a6.67,6.67,0,0,0,1.13,2.65,1.83,1.83,0,0,0,1.43.75,2.09,2.09,0,0,0,1.77-1.24,0.31,0.31,0,0,1,0-.11,2.69,2.69,0,0,1-2.53.87c-1.5-1.06-1.57-2.83-1.75-4.48-0.08-2.25-.54-4.55.11-6.75h-0.24a21.34,21.34,0,0,0-.36,3.9A20.45,20.45,0,0,0,372.83,279.6Z" transform="translate(-2.42 -2.4)"/><path class="cls-13" d="M377.47,279.65a1.12,1.12,0,0,1,.39.29,19.85,19.85,0,0,0,.55-4.74,21.44,21.44,0,0,0-.33-3.74C377.91,274.24,378.55,277,377.47,279.65Z" transform="translate(-2.42 -2.4)"/><path class="cls-4" d="M103.93,73.79s9.54-46.69,71.85-46.69c45,0,50,31.65,73,31.65,40.1,0,23-46.59,23-46.59,55.73-22.56,135.5-9.54,135.5,76.61,0,57.1-44.32,93.33-113.19,93.33-93.76,0-117.24-93.66-190.2-47.64V73.79Z" transform="translate(-2.42 -2.4)"/><path class="cls-4" d="M103.93,73.79c0-24.46-113.44-45.94-100.49,83.79a162,162,0,0,0,11.31,44.5s26.48-18,28.1-43.39c2.14-33.72,45-48.46,61.07-24.24V73.79Z" transform="translate(-2.42 -2.4)"/><path class="cls-5" d="M294.13,182.1c68.87,0,113.19-36.23,113.19-93.33,0-86.14-79.77-99.17-135.5-76.61C315.25,10.61,338,33.35,338,63.69s-49.6,60.8-90.6,36.15c-33.63-20.22-54.17-50.1-88.93-52.76-24.7-1.89-41.33,11.64-54.52,26.71v60.67C175.86,88.17,201.07,182.1,294.13,182.1Z" transform="translate(-2.42 -2.4)"/><path class="cls-5" d="M27,155.11c4.71,25.8-12.29,47-12.29,47s26.48-18,28.1-43.39c2.14-33.72,45-48.46,61.07-24.24V73.79c-22.67-12.6-52.86-3.7-67.56,14.68C22.16,106.24,23,132.9,27,155.11Z" transform="translate(-2.42 -2.4)"/><path class="cls-3" d="M291.25,147.57c-78.86-4.72-78.15-53.32-139.44-48.31-25.93,2.11-43.59,28.3-47.88,35.2C177,88.18,201,182.1,293.6,182.1c68.87,0,113.73-36.23,113.73-93.33,0-14.63-2.28-27.25-6.61-38.27C404.48,81.94,388.07,153.36,291.25,147.57Z" transform="translate(-2.42 -2.4)"/><path class="cls-3" d="M81.61,110.85c-34.37-.27-46.24,29.51-46.38,54.32-0.13,21-20.48,36.92-20.48,36.92s26.48-18,28.1-43.39c2.14-33.72,45-48.46,61.07-24.24C103.93,134.46,102.31,111,81.61,110.85Z" transform="translate(-2.42 -2.4)"/><path class="cls-16" d="M32.68,105.87v0.06l0.1-.11Z" transform="translate(-2.42 -2.4)"/><path class="cls-4" d="M32.6,105.93l0,0,0,0v0Z" transform="translate(-2.42 -2.4)"/><path class="cls-4" d="M32.57,105.88l0,0.05v0Z" transform="translate(-2.42 -2.4)"/><path class="cls-3" d="M32.64,105.92l0,0v-0.06Z" transform="translate(-2.42 -2.4)"/><path class="cls-6" d="M42.88,158.71C41.34,182.88,17.4,200.27,15,201.93v0.17s40.15-12.77,45.74-38.92,21.9-37.19,43.17-28.72C87.94,110.24,45,125,42.88,158.71Z" transform="translate(-2.42 -2.4)"/><path class="cls-6" d="M103.93,134.46s29.51-14.87,49.64-4.61,52.56,75.23,105.11,78.64c46.73,3,100-24.51,129-51.78V145.87c-23.63,29.42-66.45,36.23-93.51,36.23C200.58,182.11,177.18,88.17,103.93,134.46Z" transform="translate(-2.42 -2.4)"/></g></g></svg>